<svg width="45" height="77" viewBox="0 0 45 77" fill="none" xmlns="http://www.w3.org/2000/svg">
<path fill-rule="evenodd" clip-rule="evenodd" d="M5.67345 76.2995L17.4764 46.6942L0.227298 35.1517C-0.00821908 34.9941 -0.0708725 34.6762 0.0873577 34.4416C0.111164 34.4063 0.139295 34.3741 0.171098 34.3458L38.5368 0.130488C38.7482 -0.0580271 39.073 -0.0401716 39.2623 0.170369C39.3932 0.315971 39.4293 0.523117 39.3555 0.704199L26.4782 32.2948L44.7251 41.8439C44.9763 41.9753 45.0729 42.2847 44.9409 42.5349C44.9125 42.5889 44.8745 42.6374 44.8289 42.6781L6.49365 76.8695C6.28227 77.058 5.95748 77.0402 5.7682 76.8297C5.63825 76.6851 5.60155 76.4798 5.67345 76.2995V76.2995Z" fill="white"/>
</svg>
